<svg xmlns="http://www.w3.org/2000/svg" xml:space="preserve" width="817.379" height="842.232" viewBox="0 0 216.265 222.841"><g style="display:inline;fill:#fff"><g style="display:inline;fill:#fff"><g style="display:inline;fill:#fff"><path d="M-54.136-65.01a76 76 0 0 0-7.803.545l-.006.072c-.067.602-.1.402-.201.536-.1.133-.134.501-.134.669 0 .167.067.401.134.535s.402.2 1.271.1c.87-.1 1.54-.234 1.907-.234.369 0 .369.368.1.636-.123.124-.268.176-.408.232a73 73 0 0 1 5.143-.414c18.119-.019 35.633 6.689 49.31 18.884.55.208.996.355 1.294.147.473-.331.236-.426.473-1.372q.083-.34.135-.599C-17.095-58.008-35.296-65.022-54.136-65.01m-10.4.879a76 76 0 0 0-16.567 4.338c-.004.12-.013.253-.013.419 0 .401.234.468.234.903s0 .234.401.502c.402.268.77-.067.77-.067l-.034-.535s.335-.469.536-.77c.2-.3.435-.033 1.07-.033.636 0 .904.033 1.673.268.338.102.536.138.69.166a73.4 73.4 0 0 1 11.424-2.57l.132-.373c.301-.87.1-1.339-.034-1.84a.7.7 0 0 0-.281-.408m-18.672 5.148a77.3 77.3 0 0 0-21.826 13.567c.107.259.162.65.625 1.074.452.414.668.289 1.882.316a74.7 74.7 0 0 1 20.494-12.548c-.016-.11.058-.307.08-.625.033-.502-.134-1.104-.368-1.44-.177-.251-.41-.276-.887-.344m-33.441 27.12a80.5 80.5 0 0 0-10.727 21.1c.027.06.044.12.054.171.033.167.569.67.635.903a.54.54 0 0 0 .402.368c.134.034.2-.234.301-.401s.402-.2.736-.2q.193 0 .297.057a77.9 77.9 0 0 1 8.888-18.377 1 1 0 0 1-.084-.116c-.1-.167 0-1.071.033-1.54.034-.468-.368-1.104-.435-1.64-.023-.182-.054-.274-.1-.325M9.366-30.605q-.04-.002-.078.005c-.402.067-1.138.536-1.406 1.071-.148.297-.153.537-.161.905C16.273-15.923 20.908-.878 21.025 14.56v.13a78.7 78.7 0 0 1-7.384 33.28c.059.079.111.166.148.264.213.568.307.426.78 1.207.443.73.306.323 1.06.44a81.4 81.4 0 0 0 8.005-35.19v-.135c-.137-16.168-5.062-31.91-14.122-45.138a.7.7 0 0 0-.146-.022M-127.15-9.635a2 2 0 0 0-.474.08 2 2 0 0 1-.182.04 81.6 81.6 0 0 0-3.904 24.272c.1 18.207 4.797 34.415 16.015 48.521.524-.062.839-.237 1.116-.64.368-.535.2-.535.501-.937.107-.142.273-.217.442-.254-10.823-13.588-15.324-29.145-15.465-46.692a78.9 78.9 0 0 1 3.83-23.715c-.196.01-.481 0-.78-.093-.536-.167-.57-.234-.67-.435-.056-.113-.23-.151-.43-.146zM12.906 49.49a78 78 0 0 1-1.886 3.246c.1.157.168.302.208.679.067.635.034 1.505-.301 1.472-.335-.034-.535-.201-.569.134-.033.334-.033.568-.033 1.104 0 .535.569.77-.034.97a5.1 5.1 0 0 1-1.572.234c-.098 0-.239.017-.392.042A77 77 0 0 1 5.7 61.047c.118.221.25.433.342.463.2.067.736 1.171.736 1.171s.462.111.822.21a80 80 0 0 0 7.507-11.945c-.031-.372-.171-.545-.42-.773-.283-.26-.378.024-.661 0-.278-.023-.513-.318-1.12-.684M3.198 66.633c-.207-.01-.527.122-.903.197-.492.099-1.081-.028-1.64.03-7.887 8.704-17.63 15.416-28.465 19.613.008.34-.102.826-.142 1.302-.067.803.1.602.837 1.204l.069.056c11.898-4.562 22.525-12.048 30.949-21.803l-.003-.034c0-.234-.368-.334-.535-.502a.24.24 0 0 0-.167-.063zm-113.093.903a.6.6 0 0 0-.464.198c-.344.343-.393.615-.4 1.147a78.2 78.2 0 0 0 15.513 13.297 5 5 0 0 0 .21-.459c.134-.368.034-.836.134-1.405s-.334-.736-.468-1.104a.42.42 0 0 1 .009-.299 75.6 75.6 0 0 1-12.32-10.696c-.33-.131-.522-.25-1.072-.381-.523-.125-.863-.29-1.142-.298m15.718 12.2c.053.935-.273 1.087-.634 2.686 12.255 7.798 26.385 11.942 40.806 11.966a75.9 75.9 0 0 0 23.772-4.259l.007-.146c.033-.87-.268-.87-.57-1.137-.3-.268-.668-.368-1.204-.837a1 1 0 0 1-.098-.102 73.3 73.3 0 0 1-21.907 3.805c-14.226-.006-28.158-4.16-40.172-11.977zm64.659 7.374q-.285.09-.57.176a.8.8 0 0 0-.072.422c.034.602-.033.736.268 1.84.05.184.09.324.126.436q.643-.192 1.282-.397a29 29 0 0 1-.17-1.076c-.034-.301-.201-.435-.636-.937-.151-.174-.215-.324-.228-.464" style="display:inline;opacity:1;fill:#fff;fill-opacity:1;stroke:none;stroke-width:2.97006;stroke-linecap:round;stroke-linejoin:round;stroke-dasharray:none;stroke-opacity:1;paint-order:fill markers stroke" transform="translate(176.952 92.713)scale(1.27355)"/><path d="M-54.203-72.799A84.964 87.488 0 0 0-135.89-8.697c.177.264.308.382.457.4.268.034.301.101.77.101.468 0 .568.435.568.435s-.167.268-.669.167c-.502-.1-.435-.134-.77-.167-.334-.033.034-.134-.468-.067l-.073.013a84.964 87.488 0 0 0-.532 2.529h.17c.335 0 .369.202.57-.133.2-.334.434-.535.568-.435s0-.134.535.268c.536.401.134.1.57.535.434.435-.135.234-.503.268-.368.033-.803-.268-.87.334s.1.67-.167.87c-.268.2-.77.234-.77.234s.201-.2-.2-.535a2 2 0 0 1-.166-.154 84.964 87.488 0 0 0-1.927 14.656c.086-.06.167-.128.487-.215.736-.201.97-.134 1.17.133.202.268.335.435.804.469.468.033.502-.1.636.401.133.502.033.603.669.57.635-.034.635-.101 1.405-.135.02 0 .03 0 .049-.002A79.854 82.188 0 0 1-116.8-35.826a1.74 1.74 0 0 0-.799-1.345c-.535-.335.2-1.673.469-2.543.267-.87 1.137-1.606 1.74-2.141.602-.535 1.27-1.272 1.74-2.074.468-.803 1.538-.536 2.877-.803.848-.17 1.106-.017 1.658.117a79.854 82.188 0 0 1 55.108-23.073 79.854 82.188 0 0 1 22.337 3.433c.016-.053.043-.09.085-.096.284-.048 1.089-.095 1.041-.426-.047-.331-.379-1.656-.473-2.13-.095-.472-.331-.425-.568-.33s-.568.757-.946.899c-.379.142-.662-.19-.994-.38-.33-.188 0-.236-.757-1.087-.757-.852-.047-.426-.047-1.041s.473-.379.473-.71-.284-.568-.284-.568l.006-.006a84.964 87.488 0 0 0-20.069-2.669zm21.818 3.364c-.468-.013-.442.204-.524.494-.095.331.141.473.473.852.33.378.568-.048 1.893-.048 1.324 0 .189.427.567.805.379.379.615.094.615.804s.048 1.23.048 1.94.236.237.851.52c.615.285.663.143 1.373.19s.425.473.757.71c.33.236.662.189 1.371.189.71 0 .332-.615 1.23-.804.9-.19.521.425.285 1.04-.23.598.025.71-.305 1.495A79.854 82.188 0 0 1 .77-45.156c.525-.166 1.439-.315 2.28-.315.946 0 1.373.094 2.508.141 1.136.048.663.473.663.473s.946.474 1.372.947.568.426.568.757.331.379.615.804.851 1.04 1.372 1.703c.52.663.473 1.42.804 2.13s.048 1.561-.236 2.082-.616.662-.805 1.656l-.032.18a79.854 82.188 0 0 1 16.067 48.96l.001.138a79.854 82.188 0 0 1-3.308 21.98l.167.096s.307.663.283 1.16-.189.544-.378.757c-.19.213-.592.402-.592.402l-.023.496s-.048.781-.19 1.136-.118.568-.024 1.018c.095.45.143.662.545 1.135s.497.071.45.379c-.048.307-.048.45-.048.733 0 .284-.284.473-.426.473s-.118-.024-.071-.733c.047-.71-.568-.26-.733-.497s-.402-.118-.852-.024c-.148.031-.254.053-.359.078a79.854 82.188 0 0 1-8.879 17.602c.07.117.116.279.107.505-.034.837.401.435 1.07.737.67.3.67.133.803.501.134.368.034.603-.267.77s-.502.033-.569.167-.067.803-.134.937-.268-.335-.535-.703c-.268-.368.1-.87-.837-1.305-.282-.13-.444-.181-.555-.19a79.854 82.188 0 0 1-.98 1.517c.019.423.198 1.063.213 1.317.017.267.05.618.268.652.218.033.803.134.92.134.118 0 .703-.1 1.02-.1.319 0 .47-.202.636.4.168.603.151 1.138.52 1.256.14.044.216.048.284.051A84.964 87.488 0 0 0 20.16 56.65a2 2 0 0 0-.448-.037c-.635 0-1.104-.201-1.405.267s-.334.97-.535 1.171c-.2.201-.502.268-.803.201s-.77-.77-.703-.97c.067-.201.837.033.87-.168.034-.2.034-.2.1-.635.068-.435-.033-1.272-.033-1.272s.201.134.469 0c.267-.133.535-.334.669-.1s-.2.736.334.77c.536.033.603.3 1.004.167.34-.113.465-.25.86-.188A84.964 87.488 0 0 0 30.87 14.689v-.147a84.964 87.488 0 0 0-.88-12.386c-.11.01-.2.02-.238.02-.134 0-.67-.067-1.238-.134-.569-.067-.535-.234-.535-.736s.134-.836.134-.836.602-.034 1.07.1c.251.072.35.143.514.174a84.964 87.488 0 0 0-6.39-21.654 2 2 0 0 0-.213-.067c-.636-.167-.402-.033-1.271-.368-.87-.334-1.774-.368-1.305-.602.468-.234.3.3.936-.301.636-.603.67-.703.67-1.104s.134-.067-.469-.536c-.602-.468-.268.067-.77-.669-.501-.736.201-.803-.802-.87s-.97-.067-1.573-.067c-.602 0-1.572.368-1.572 0s-.301-.602.334-.602c.636 0 .67.2.837-.2.167-.402.133-.502.2-.67.067-.167.469-.2.837-.2.308 0 .874.21 1.148.18A84.964 87.488 0 0 0 .444-51.938c-.296.4-.585.19-1.13.268-.663.094-.758-.048-.9.236s-.237.616-.662.616-.19-.284-.19-.663c0-.378.284-1.561.095-2.46-.19-.9-.426-.332-.946-.947a3 3 0 0 1-.239-.32 84.964 87.488 0 0 0-27.71-14.12c-.246.686-.235.004-.914-.086a2 2 0 0 0-.233-.02m-91.567 37.66c.422-.005.288.25.288.64 0 .403.119.71.119 1.136s-.19.33-.498.497c-.307.165-.165 0-.52-.237l-.023-.094s.213-.284.26-.568-.213-.616-.213-.781.071-.568.544-.592zM27.069-3.104c.247.002.532.165.641.328.134.2-.301.134-.435.57-.134.434-.401.501-.401.334 0-.168.033-.301.033-.301-.703-.268-.937-.77-.569-.837s.301.033.569-.067a.5.5 0 0 1 .162-.027M25.934-1.22c.034-.002.074.047.137.152.2.334.368.669.702.736.335.067.201.334-.1.535-.301.2-.569.67-.77.234-.2-.435-.3-.937-.3-.937.206-.46.255-.714.33-.72M-136.95 11.477c-.171-.016-.339.017-.556.1-.435.168-.435.369-.67.536-.234.167-.334.1-.434.368s.033.569.435.636c.401.067.435.2.836.067.402-.134.703-.034.837-.134.121-.091.249-.07.42-.04.008-.074-.018-.165.033-.294l.02-.047c-.02-.025-.035-.03-.072-.255-.1-.602.2-.502-.267-.736-.235-.117-.41-.184-.582-.2zm1.805 1.663c-.075.017-.166.033-.277.061-.248.065-.205.115-.344.29.005.133.02.277 0 .362-.02.075.03.135.014.183l.002.001c.134.117.134.117.134.284 0 .168 0 .184-.401.268-.402.084-.686-.017-.853-.017-.168 0-.385.117-.536.168-.15.05-.083.183-.017.685.067.502-.033.62-.401.988s-.402.083-.803.016a1.7 1.7 0 0 0-.317-.03 84.964 87.488 0 0 0 .254 2.892l.098-.033c.45-.165.899-.142.899-.142s-.047.402.308.52c.355.119.71.26.733.38.024.117.19.306-.19.306-.378 0-.922-.023-1.206-.047-.247-.02-.28-.077-.564-.09a84.964 87.488 0 0 0 16.88 46.826l1.334-.143 2.304-.89.815-.516-.186-.165-.568-.615-.283-1.183s-.427-.095-.663-.095-.568.048-.662.474.142.52.189 1.135-.094.474-.473.71c-.378.237-.19-.236-.473-1.183-.284-.946-.332-.473-.332-.284 0 .19.048.663-.473 1.183-.52.52-.899-.047-.71-.142s.095-.804.095-.804.142-.757.142-1.183-.331-.284-.615-.52.095-.663.52-.805c.427-.142.52 0 .568.615s.568.332 1.704.284c.827-.034.626-.147.767-.717A79.854 82.188 0 0 1-133.76 14.57a79.854 82.188 0 0 1 .076-1.133c-.084 0-.204-.032-.377-.085a5 5 0 0 0-1.07-.201c-.003 0-.012-.009-.015-.01M5.407 69.253a79.854 82.188 0 0 1-32.392 22.605c-.056.181-.142.392-.199.694-.07.378.142.45.166.852s.142.26.615.236.473 0 .402.119c-.07.118-.213.165-.591.544-.379.378-.402.118-1.088.023-.686-.094-.025-.449.023-.899.047-.449-.284-.378-.757-.425-.473-.048-.497-.356-.852-.214s-.19.545-.166 1.397c.024.851 0 .567-.07.827s-.237.071-.356-.118c-.118-.19-.117-.568-.188-.993s-.237-.237-.616-.332c-.233-.058-.251-.17-.402-.337a79.854 82.188 0 0 1-22.808 3.456 79.854 82.188 0 0 1-58.739-26.67 1.2 1.2 0 0 0-.264.058.75.75 0 0 0-.283.148l-.012.01c-.168.174-.048.44-.083 1.073-.048.851-.095 1.23-.095 1.23s-.473.047-.946 0c-.085-.009-.143-.041-.203-.072l-.16.266-.728 1.86-.178.117a84.964 87.488 0 0 0 61.504 27.47A84.964 87.488 0 0 0 9.563 72.601c-.135-.175-.209-.3-.422-.548-.3-.352-.318-.118-.786-.319-.468-.2-.535-.836-.786-1.187s-.268-.284-.703-.167-.786.066-.97-.419c-.14-.371-.292-.38-.49-.709m-16.479 17.211c.249.003.295.156.377.363.095.236 0 .638.095.804s.119.165-.165.331-.876.119-.947.237-.094 1.065-.236.331c-.142-.733-.26-.923-.26-1.16s.118-.709.118-.709c.544-.165.544-.142.899-.19a1 1 0 0 1 .12-.007zm-12.706 6.632s.142.308.45.426c.308.119.331.024.71.118.379.095-.048.26-.308.38-.26.117-.236.283-.71.732 0 0-.047-.213-.165-.426-.118-.212-.237-.283-.544-.354s-.118-.166.023-.402c.142-.237.544-.474.544-.474" style="display:inline;opacity:1;fill:#fff;fill-opacity:1;stroke:none;stroke-width:.286414;stroke-linecap:round;stroke-linejoin:round;stroke-dasharray:none;stroke-opacity:1;paint-order:fill markers stroke" transform="translate(176.952 92.713)scale(1.27355)"/></g><path d="M-110.902-51.448c-1.069-.019-2.738.02-3.515.171-1.037.203-1.159.81-1.586 1.688-.426.877-.183 1.08.061 2.767s2.44 1.957 2.44 1.957-.183.743-.366 1.013-.488.54-1.28 1.012c-.794.473-.489 1.553-.733 2.363s.854 3.645 1.28 5.4c.428 1.755.519 3.756.346 3.947-.172.19.26 1.384.604 1.67.345.287 0 2.434 0 2.434s-1.897-1.336-2.587-2.004-2.587-1.766-2.975-1.718c-.388.047-.95 1.145-1.337 2.004-.388.86-.69 2.72-.388 3.866s1.552 1.67 5.52 3.628c3.966 1.956 3.966 4.057 3.923 4.486-.043.43-.043 5.298.172 8.448.216 3.15.561 3.676.733 4.821.173 1.146.26 1.91 0 3.15-.258 1.241-.086 1.527.043 2.1.13.573.604.382.604.382l.13.859c.129.859-.173 1.337-.26 1.862-.085.525-.776 1.765-.862 2.672s1.596 4.535 1.768 4.63c.173.096.604-.62.863-1.193.258-.573.646-1.289.776-1.91.13-.62.13-1.145.215-1.956.086-.812-.13-5.871-.172-7.685-.043-1.814.086-4.056.172-5.965.086-1.91.043-5.824.087-6.921.043-1.098.258-2.912.258-2.912s.475.334.906.62c.431.287 2.285 1.003 3.147 1.575.863.573 2.156 1.767 3.364 2.482s3.708 2.244 3.923 2.34c.216.095.647-.144.604-.526s.56-.525 1.25-.382 1.38-.047 1.38-.047-.13-1.241-.172-1.623a1.8 1.8 0 0 0-.474-1.002c-.259-.287-.086-.62.302-.955s3.75-3.723 4.268-3.866 1.078.19 1.25.525c.173.334-.086 1.432-.086 3.198s-.086 6.825-.129 9.498-.086 7.923-.086 8.161c0 .24.517 1.862.905 2.196s.388.573.69.095c.302-.477.733-1.24.905-1.622s.389-4.868.475-5.823.647-4.82.69-5.823.431-3.484.518-4.487c.086-1.002-.044-1.622.042-2.72.087-1.098.604-6.539.604-6.539s7.977-9.355 8.193-9.785.13-1.956 0-2.147-4.226 0-4.96.047c-.732.048-.603.144-.99.62-.389.478-.303.287-.777.335s-.647 0-.69-.239c-.043-.238.13-1.766.173-2.386s-.26-1.05.172-1.432c.431-.382.087-1.05.302-1.528.216-.477.086-1.956.259-2.243.172-.286.819-.239.948-.811.13-.573 0-.764-.172-1.002-.173-.24-.518-.096-.69-.286-.173-.191.086-1.098.043-1.814s.388-1.337.518-1.671c.129-.334.301-.286.991-.382.69-.095 1.811-.143 2.285-.19.475-.049.346-.287.346-.287s.129-.716-.173-1.289c-.302-.572-.672-.44-1.221-.44h-1.768c-1.22 0-.976-.135-2.196-.135s-.549-.338-1.28-.743c-.732-.405-.671 0-2.013.068-1.341.067-1.22.135-1.524.067-.305-.067-.183-.472-.976-.944-.792-.473-.426 0-1.402.067-.976.068-3.476-.135-5.366-.067-1.89.067-2.378-.068-3.415-.338s-3.964.607-5.854.607-2.317-.607-3.537-1.417-1.95-.472-2.622-.54a12 12 0 0 0-.814-.036m17.655 6.257c.233.002.422.01.551.028 1.035.144 2.933-.047 3.278.287s.819.047 1.164 1.48c.344 1.431.431 3.293.604 3.866.172.572.258.572.258 2.386s.043 2.148-.043 3.675c-.086 1.528-.13 3.15-.259 4.391-.13 1.241-.215 1.48-.129 2.148s-1.25 1.67-3.234 4.248c-1.983 2.577-4.83 5.966-5.217 6.062-.388.095-.39-.067-1.294-.287-.585-.142-1.068-.83-1.983-1.909-.84-.99-.647.238-1.725-.669-1.078-.906-2.673-1.861-3.708-2.72s-1.078-.62-1.595-1.288c-.518-.669-.777-.573-.734-2.053s.389-4.152.432-5.44c.043-1.29.215-5.251.43-5.776.216-.526.734-1.623.777-2.673s-.173-2.673-.173-3.007v-.716c1.035-.43.949-.43 1.897-.763.949-.334 4.226-.955 4.787-.955.49 0 4.282-.329 5.916-.315" style="display:inline;opacity:1;fill:#fff;fill-opacity:1;stroke:none;stroke-width:.278369px;stroke-linecap:butt;stroke-linejoin:miter;stroke-opacity:1" transform="translate(232.576 82.616)scale(1.27355)"/><path d="M-103.18 33.893c-.649.006-1.474.207-2.638.207-1.552 0-1.552.135-1.897.269s-.69.536-1.897 1.251c-1.208.716-1.352-.057-2.2 1.7l-.06.126s.288.734.501 1.334.884 1.391.732 1.77c-.153.38-.061.254-.64.76-.58.505-1.098 1.138-1.129 1.486-.03.347.153 2.94.488 3.414.336.474.427.822.64 2.024s.122 1.96.305 3.762-.091 1.423.366 2.308c.458.885.55.917.793 2.94.244 2.024.61 1.613.457 2.277-.152.663-.579.094-.945.695-.366.6.854 3.794 1.037 4.553s.457 1.233.793 3.288c.335 2.055.06 1.264.152 2.434.091 1.17.732 4.521.732 4.774s-.183 1.043-.275 1.36c-.091.316-1.677 2.465-2.256 3.382-.58.917-1.89 1.486-1.92 1.77s.487 1.645.7 1.581c.214-.063 1.037.064 1.525-.316s1.707-1.58 2.043-1.865c.335-.285.67.032.762.221.091.19.061.696-.061 1.044-.122.347.091 1.074.183 1.454.091.38.58.695.823 2.434.244 1.74.244 5.66.488 6.007.244.348.274 1.423.274 1.929 0 .505-.152 1.991-.091 2.434.06.443 1.341.759 1.555.759s.091-.127.305-.696c.213-.569.61-1.39.61-1.707 0-.316-.183-1.012-.244-1.201s-.623-1.094-.536-1.988.172-1.252.388-2.548c.215-1.297-.086-1.834-.13-2.325-.043-.492.345-1.61.259-2.057s-.517-.581-.517-.85c0-.268-.087-2.906-.087-3.89 0-.983.432-3.13.518-3.71.086-.582.431-.537.56-.76.13-.224.043-1.566.216-2.057.172-.492.776-.76 1.25-1.297.475-.536.992-1.475 1.553-2.235s1.294-1.52 2.113-2.147c.82-.626.56-.894 1.336-.939s1.854-.178 3.32-.044 1.208.045 1.682.223c.474.18.82.224 1.639.269s.603.089.819.58c.215.493.69 2.594.776 3.935s-.173 5.768-.086 7.333c.086 1.565.13 1.073.647 2.504.517 1.43.344.76.344 1.923 0 1.162.346 2.235.518 3.666.172 1.43-.086 2.146.043 2.504.13.357.604.134.647.491.043.358-.086.269-.302 1.074s-.302.76-.302 1.206c0 .448.949 1.655 1.38 1.566.431-.09.258-.85.388-2.191.129-1.342.733-3.667.776-4.159.043-.491-.086-1.296-.259-2.056a15 15 0 0 1-.301-2.19c-.043-.627.43-1.79.69-2.907.258-1.118.172-2.683.301-3.398.13-.715-.56-4.113-.517-4.695.043-.58.086-1.476.604-1.744.517-.268.258-1.028.301-1.743.044-.716.216-5.992.087-7.02-.13-1.028-.82-1.52-1.078-1.699s-1.036.045-1.38 0c-.345-.044-.949-.581-1.25-.715s-2.114-.045-2.114-.045h-2.07s5.218-4.874 5.477-5.187-.13-1.296-.13-1.61c0-.312-.043-2.056-.043-2.369s.647-.224.863-.492 0-8.45-.13-9.076c-.129-.626-1.077-2.459-1.465-3.085s-1.251-1.565-2.114-2.146c-.862-.581-2.5-1.073-3.32-1.073s-1.681.045-2.716.045-2.07.044-2.89 0c-.818-.045-1.12-.045-1.594-.313-.475-.269-1.208-.135-1.94-.135-.734 0-.906-.09-1.639-.313a2 2 0 0 0-.596-.073m9.635 6.751c.3.006.635.033 1.047.096 1.646.253 1.768.506 1.951 1.202.183.695.061 1.96.061 2.909s-.244 1.075 0 1.834c.244.758.244.822.366 1.833s.244 1.708-.305 2.53-.793 1.264-.976 1.707c-.182.442-2.439 2.529-2.622 3.161s-1.22 2.466-1.524 3.035c-.305.57.183.822-.732.949-.914.126-2.5.063-2.5.063s-.793-.19-.976.57c-.182.758-.61 1.96-.121 2.465.487.506 1.402.19.975.822s-1.463 1.897-1.951 3.351c-.488 1.455-.427 2.087-1.037 2.846s-.427 1.138-1.036 1.454c-.61.316-.854.253-.854-.316 0-.57.366-2.15.244-3.288s-.488-6.386-.122-7.145.67-.822.854-2.213c.182-1.391-.61-3.351-.305-4.426s.183-.443.975-2.213c.793-1.77.732-1.77.732-3.162s.183-2.403.183-3.288.061-1.77-.305-2.213-.724-1.176-.724-1.176l-.011-.111c-.05-.508 1.226.117 1.772.022.604-.104 1.158.19 1.158-.252 0-.443-.305-.57.488-.696s.61-.19 2.44-.19c1.371 0 1.954-.178 2.855-.16" style="display:inline;fill:#fff;fill-opacity:1;stroke:none;stroke-width:.269425px;stroke-linecap:butt;stroke-linejoin:miter;stroke-opacity:1" transform="translate(232.576 82.616)scale(1.27355)"/><path d="M-166.68 1.073c.061-2.073.61-1.83.793-2.744s.427-.793 1.158-1.159c.732-.366 2.562-.244 3.171.061.61.305 1.525.305 2.074 1.22s.731 1.341 1.402 2.012c.67.67.183.793 1.037.793s1.28.305 2.134.244 1.159 0 2.134-.061c.976-.061 1.342 0 1.464-.244s-.671-.427-.488-1.525-.305-1.22.183-1.89.732-.61 1.585-.976c.854-.366.55-.305 1.28-.731.733-.427 1.038-.671 1.83-.305.793.366.915.305 1.83 1.036.914.732 1.707.915 1.707 2.074s-.183 1.341.183 1.585 1.83.366 2.988.366c1.159 0 2.256.427 2.378-.244.122-.67-.67-.549-.305-1.159s.549-.122 1.708-.853c1.158-.732.61-1.159 1.768-1.159 1.159 0 1.951-.366 2.256-.366s.671.061 1.403.61c.731.549 1.097 1.098 1.22 3.049.121 1.951.548 3.049.548 3.72 0 .67-.183 1.524-.427 2.5-.244.975-.853.305-.914 1.524s-.122 4.574-.122 5.55c0 .975-.061.61-.488 2.378s-.793 3.597-.732 4.329-.488 2.622-.366 3.537c.122.914.183 3.537-.183 4.817s0 1.464-.793 1.89c-.792.427-.731.244-.853-.548-.122-.793 0-2.196-.244-3.171-.244-.976-.67-1.464-.549-2.744.122-1.28.488-2.378.305-4.269-.183-1.89-1.098-3.476-1.22-4.207-.122-.732-.487-1.586-.305-2.988.183-1.403-.06-2.622-.121-3.537s-.244-1.22-1.22-1.342-1.707-.244-2.866-.67-.793-.183-1.525.122c-.731.304-1.158.792-1.158 1.402s0 4.878-.122 5.61-.732 3.598-.854 4.635.183 2.5.061 2.987-.183 2.318-.244 3.476c-.06 1.159-.427 2.988-.427 3.72s-.243 2.5-.121 4.451c.121 1.952.06 2.257-.183 2.927-.244.671-.427 8.05-.427 9.208 0 1.159.06 3.842.122 4.269.06.427.548 1.158.548 1.707s.366 2.744.183 3.354-.61 2.744-.914 2.988-.55.793-.55.793-.548.61-.914-.488 0-1.525-.183-3.659.183-4.025-.183-5.305c-.365-1.28-.914-2.805-.914-3.72 0-.914.305-2.012 0-3.72-.305-1.707-.671-1.463-.671-2.683s.427-4.268.244-4.939c-.183-.67-.976-.183-1.159-1.22s0-3.353-.244-5.427-.853-6.158-.914-7.56c-.061-1.403-.061-5.489-.183-6.891s-1.098-1.83-1.28-2.988c-.184-1.159.121-2.013-.184-2.257s-1.524-.366-2.134-.366-2.378.061-3.049.183-.61.061-.732.732c-.122.67 0 2.988-.122 4.33-.122 1.341-.487 4.634-.427 5.488.061.853 0 4.756 0 5.732 0 .975-.243 3.293-.487 4.451-.244 1.159-.366 2.866-.427 3.537s.305 1.951-.488 1.463c-.793-.487-.366-.06-1.037-2.195s-.975-2.256-1.036-4.512.366-3.903-.061-5.244c-.427-1.342-1.159-1.586-.976-3.232s0-2.135-.122-3.293-1.402-2.195-1.524-3.354-.427-3.72-.366-4.756c.06-1.037.366-1.342-.305-1.952-.67-.61-1.28-.548-1.342-1.097-.06-.549-.548-.793-.427-1.525s.366-1.22.366-1.22z" style="display:inline;fill:#fff;fill-opacity:1;stroke:none;stroke-width:.264583px;stroke-linecap:butt;stroke-linejoin:miter;stroke-opacity:1" transform="translate(232.576 82.616)scale(1.27355)"/><path d="M-62.78-1.318c.735-1.39 1.286-1.786 2.205-2.283.92-.496 3.033-1.19 4.135-1.19 1.103 0 6.25.049 7.812-.05 1.562-.1 4.181.248 6.11.05 1.93-.2 2.482.099 3.401-.398.92-.496.597-.397.965-1.092.368-.694 2.39-.794 3.125-.694.735.099 2.021.198 2.205.595s.878.478 1.008 1.67c.13 1.194.065 5.545 0 6.668s-.52 3.018-.52 3.51v2.877c0 1.404-.455 2.316-.455 3.088s-.324 2.807-.26 4c.066 1.194-.454 4.843-.454 4.843l-.975-2.877c-.715-.562-.78-.14-.91-1.474s.585-2.737.39-3.86.065-1.474-.195-2.948-.91-1.123-.91-2.737.325-2.106-.844-3.159-3.444-1.965-4.679-2.245c-1.235-.281-3.899-.562-5.263-.562-1.365 0-2.6-.07-2.925.21-.325.281 0 1.685-.454 1.615-.455-.07-2.535-.632-3.704-.28-1.17.35-1.495 0-1.56.771-.065.772-.065 2.246.195 3.299s.78 3.158 2.014 4.983c1.235 1.825 11.112 14.037 11.827 14.879s5.198 5.404 6.043 6.246 2.21 3.088 2.664 3.93 1.3 1.615 1.625 3.79c.325 2.176.455 4.633.455 4.633s.195.21.455.21.715.632.65 1.123c-.065.492-1.69 1.474-2.405 1.965s-.78.632-1.494 1.053c-.715.421-.65.702-2.015.772-1.364.07-14.945.14-18.13.07s-6.043.211-6.758-.35c-.714-.562-.714-1.053-.78-1.825-.064-.772.586-2.597.78-3.58.195-.982.26-3.298.325-4.351s-.26-7.23-.13-7.86c.13-.632.78-.913.845-1.755.065-.843-.26-1.264-.455-2.387s-.585-.49-.39-2.175 0-2.737.325-2.878c.325-.14 1.495-.421 1.755 1.053s-.065 2.527.26 3.158c.325.632.455.702.65 2.457.194 1.754.714 4.491.844 5.544s.39 3.299.65 4.07c.26.773.65.983.78 2.177s-.13 2.035.455 2.596c.585.562.91.983 1.82 1.053.909.07 3.768-.28 4.548-.491s3.184-.491 4.614-.491 3.054 0 4.418.07 1.69-.28 1.625-1.334c-.065-1.052-.325-3.018-1.43-4.702s-8.837-11.16-9.617-12.142-3.509-5.544-4.289-6.246-1.69-2.387-4.029-3.72-1.494-2.106-2.209-2.878-1.82-.772-2.86-1.754c-1.039-.983-1.624-1.264-1.624-3.088s.585-5.475.585-6.177c0-.701.16-2.995.16-2.995" style="display:inline;fill:#fff;fill-opacity:1;stroke:none;stroke-width:.29302px;stroke-linecap:butt;stroke-linejoin:miter;stroke-opacity:1" transform="translate(232.576 82.616)scale(1.27355)"/><path d="M-158.788-23.411c-.067-1.421-.135-2.571-.135-4.195 0-1.623.203-2.368.609-3.18.406-.811.473-1.217 1.894-2.029s2.03-1.082 2.57-1.556c.542-.474 1.016-.541 2.03-.27 1.015.27 1.692.54 4.06 1.826 2.367 1.285 4.6 1.894 5.209 3.18.608 1.285 2.03 2.164 2.164 3.72.136 1.556.61 3.045.88 3.789s1.015.609 1.015 1.759.54 1.759 1.42 2.57c.88.812 5.277 4.33 6.563 5.616s6.968 5.277 7.441 6.088c.474.812 5.006 5.954 5.818 6.495s3.18 2.774 3.992 3.112 2.03.947 2.773 1.556c.745.609 5.954 4.87 6.63 5.683.677.811 3.586 3.45 4.6 3.991 1.015.541 2.571 2.503 2.91 2.841s10.96 9.81 12.989 11.636c2.03 1.827 3.315 2.504 5.885 4.668 2.571 2.165 4.06 3.992 5.345 5.007s3.112 2.03 3.788 3.315c.677 1.285.677 2.164 1.286 2.841.609.676 2.638 2.3 2.638 2.3s6.63 5.886 7.848 7.306c1.217 1.421 3.585 3.383 4.262 4.127s4.938 4.33 6.088 5.277 3.66 2.911 4.903 4.346c1.244 1.435 2.105 2.44 2.918 2.966s1.627 1.1 2.296 1.866c.67.765.766.717 1.77 1.148s1.627.335 2.297.957 2.726 3.061 3.109 3.492c.383.43.67 1.483 1.1 1.865.43.383 1.053.861 1.483 1.579.43.717 1.77 1.387 2.153 2.057.382.67 1.291 1.53.67 1.435-.622-.096-1.483 0-2.392-.526-.91-.526-1.292-1.387-2.344-2.249-1.053-.86-1.866-1.817-3.97-3.348-2.106-1.53-3.254-1.818-4.258-3.11s-1.1-2.104-1.722-2.487-.431-.335-1.77-.765c-1.34-.431-1.483.143-2.536-1.149-1.052-1.291-3.157-4.018-4.783-5.022s-4.975-4.354-7.128-5.55-3.205-1.865-3.684-2.056c-.478-.192.048-.192-.86-1.388-.91-1.196-2.775-3.396-4.88-5.023s-4.975-4.688-6.027-5.836-1.531-1.052-2.775-2.487-1.913-2.68-2.487-3.349c-.575-.67-.383.287-2.201-.957s-5.453-3.73-6.219-4.879c-.765-1.148-1.148-1.34-4.114-3.827s-8.323-5.836-10.524-7.94c-2.2-2.106-2.87-2.393-4.688-3.54-1.818-1.149-3.54-1.053-4.21-2.297s-2.296-2.87-3.348-3.922-2.01-1.818-4.401-3.158-3.923-1.435-5.166-2.966c-1.244-1.53-4.019-3.73-5.55-5.644s-6.314-5.071-8.036-6.602c-1.722-1.53-1.818-2.2-3.062-2.487s-1.626 0-2.2-.957-4.114-4.305-5.07-4.975c-.958-.67-2.393-.766-3.254-.957-.86-.191-1.802.552-4.305-1.68-2.504-2.233-3.112-3.248-4.33-4.263s-1.218-.812-1.894-1.624c-.677-.811-1.083-2.164-1.083-2.164" style="display:inline;fill:#fff;fill-opacity:1;stroke:none;stroke-width:.293536px;stroke-linecap:butt;stroke-linejoin:miter;stroke-opacity:1" transform="translate(232.576 82.616)scale(1.27355)"/><path d="M-36.25-23.64c.068-1.42.136-2.57.136-4.195 0-1.623-.203-2.367-.609-3.18-.406-.811-.474-1.217-1.894-2.029s-2.03-1.082-2.571-1.556c-.541-.473-1.015-.54-2.03-.27s-1.69.54-4.059 1.826c-2.367 1.286-4.6 1.895-5.209 3.18s-2.03 2.165-2.165 3.72c-.135 1.557-.609 3.045-.88 3.79-.27.743-1.014.608-1.014 1.758s-.541 1.76-1.42 2.57c-.88.813-5.277 4.33-6.563 5.616s-6.968 5.277-7.441 6.089c-.474.811-5.007 5.953-5.819 6.494-.811.541-3.18 2.774-3.99 3.112-.813.338-2.03.947-2.775 1.556-.744.609-5.953 4.871-6.63 5.683s-3.585 3.45-4.6 3.991c-1.015.542-2.57 2.503-2.909 2.842s-10.96 9.81-12.989 11.636-3.315 2.503-5.886 4.668c-2.57 2.165-4.059 3.991-5.344 5.006s-3.112 2.03-3.789 3.315c-.676 1.285-.676 2.165-1.285 2.841s-2.638 2.3-2.638 2.3-6.63 5.886-7.848 7.307c-1.218 1.42-3.585 3.382-4.262 4.127s-4.939 4.33-6.089 5.276c-1.15.947-3.659 2.911-4.902 4.346s-2.105 2.44-2.918 2.966-1.627 1.1-2.297 1.866c-.67.765-.765.718-1.77 1.148s-1.626.335-2.296.957-2.726 3.061-3.11 3.492c-.382.43-.669 1.483-1.1 1.866-.43.382-1.052.86-1.482 1.578s-1.77 1.387-2.153 2.057-1.292 1.531-.67 1.435 1.483 0 2.392-.526 1.292-1.387 2.344-2.248c1.053-.861 1.866-1.818 3.97-3.349 2.105-1.53 3.254-1.818 4.258-3.11 1.005-1.29 1.1-2.104 1.722-2.487.622-.382.43-.335 1.77-.765s1.483.143 2.536-1.148c1.052-1.292 3.157-4.019 4.783-5.023 1.627-1.005 4.975-4.353 7.128-5.55 2.153-1.195 3.205-1.865 3.683-2.056.479-.192-.047-.192.861-1.387.91-1.196 2.775-3.397 4.88-5.023 2.105-1.627 4.975-4.688 6.027-5.836s1.531-1.053 2.775-2.488 1.913-2.679 2.487-3.349.383.288 2.2-.956c1.819-1.244 5.454-3.732 6.22-4.88.765-1.148 1.148-1.339 4.114-3.827 2.965-2.487 8.323-5.836 10.524-7.94s2.87-2.392 4.688-3.54 3.54-1.053 4.21-2.297c.67-1.243 2.296-2.87 3.348-3.922s2.01-1.818 4.4-3.157c2.393-1.34 3.924-1.436 5.167-2.966 1.244-1.531 4.019-3.732 5.55-5.645 1.53-1.914 6.314-5.07 8.036-6.602 1.722-1.53 1.818-2.2 3.062-2.487s1.626 0 2.2-.957 4.114-4.305 5.07-4.975 2.393-.765 3.254-.957c.86-.19 1.802.552 4.305-1.68s3.112-3.248 4.33-4.263 1.218-.811 1.894-1.623c.677-.812 1.083-2.165 1.083-2.165" style="display:inline;fill:#fff;fill-opacity:1;stroke:none;stroke-width:.293536px;stroke-linecap:butt;stroke-linejoin:miter;stroke-opacity:1" transform="translate(232.576 82.616)scale(1.27355)"/><g style="fill:#fff"><path d="M253.961 267.252c-1.069-.019-2.738.02-3.515.171-1.037.203-1.159.81-1.586 1.687-.427.878-.183 1.08.061 2.768s2.44 1.957 2.44 1.957-.183.743-.366 1.013-.488.54-1.281 1.012c-.793.473-.488 1.553-.732 2.363s.854 3.645 1.28 5.4c.428 1.755.519 3.756.346 3.947-.172.19.26 1.384.604 1.67.345.287 0 2.434 0 2.434s-1.897-1.336-2.587-2.004-2.587-1.766-2.975-1.718c-.388.047-.95 1.145-1.337 2.004-.388.86-.69 2.72-.388 3.866s1.552 1.67 5.52 3.628c3.966 1.956 3.966 4.057 3.923 4.486-.043.43-.043 5.298.172 8.448.216 3.15.561 3.676.733 4.821.173 1.146.26 1.91 0 3.15-.258 1.241-.086 1.527.043 2.1.13.573.604.382.604.382l.13.859c.129.859-.173 1.337-.26 1.862-.085.525-.776 1.765-.862 2.672s1.596 4.535 1.768 4.63c.173.096.604-.62.863-1.193.258-.573.646-1.289.776-1.91.13-.62.129-1.145.215-1.956.086-.812-.13-5.871-.172-7.685-.043-1.814.086-4.056.172-5.965.086-1.91.043-5.824.087-6.921.043-1.098.258-2.912.258-2.912s.475.334.906.62c.431.287 2.285 1.003 3.147 1.575.863.573 2.156 1.766 3.364 2.482s3.708 2.244 3.923 2.34c.216.095.647-.144.604-.526s.56-.525 1.25-.382 1.38-.047 1.38-.047-.13-1.241-.172-1.623a1.8 1.8 0 0 0-.474-1.002c-.259-.287-.087-.62.302-.955.388-.334 3.75-3.723 4.268-3.866s1.078.19 1.25.525c.173.334-.086 1.432-.086 3.198s-.086 6.825-.129 9.498-.086 7.923-.086 8.161c0 .24.517 1.862.905 2.196s.388.573.69.095c.302-.477.733-1.24.905-1.622s.389-4.868.475-5.823.647-4.82.69-5.823.431-3.484.517-4.487c.087-1.002-.043-1.622.043-2.72.087-1.098.604-6.539.604-6.539s7.977-9.355 8.193-9.785.13-1.956 0-2.147-4.226 0-4.96.047c-.732.048-.603.144-.99.62-.389.478-.303.287-.777.335s-.647 0-.69-.239c-.043-.238.13-1.766.173-2.386s-.26-1.05.172-1.432c.431-.382.086-1.05.302-1.528.216-.477.086-1.956.259-2.243.172-.286.819-.239.948-.811.13-.573 0-.764-.172-1.002-.173-.24-.518-.096-.69-.286-.173-.191.086-1.098.043-1.814s.388-1.337.518-1.671c.129-.334.301-.286.991-.382.69-.095 1.811-.143 2.285-.19.475-.049.346-.287.346-.287s.129-.716-.173-1.289c-.302-.572-.672-.44-1.221-.44h-1.769c-1.22 0-.975-.135-2.195-.135s-.549-.338-1.28-.743c-.732-.405-.671 0-2.013.068-1.341.067-1.22.135-1.524.067-.305-.067-.183-.472-.976-.945-.792-.472-.427 0-1.402.068-.976.067-3.476-.135-5.366-.068-1.89.068-2.378-.067-3.415-.337s-3.964.607-5.854.607-2.317-.607-3.537-1.417-1.951-.472-2.622-.54a12 12 0 0 0-.814-.036m17.654 6.257c.234.002.423.01.552.028 1.035.144 2.933-.047 3.278.287s.819.047 1.163 1.48c.345 1.431.432 3.293.605 3.866.172.572.258.572.258 2.386s.043 2.148-.043 3.675c-.086 1.528-.13 3.15-.259 4.391-.13 1.241-.215 1.48-.129 2.148s-1.25 1.67-3.234 4.248c-1.983 2.577-4.83 5.966-5.217 6.062-.388.095-.39-.067-1.294-.287-.585-.142-1.068-.83-1.983-1.909-.84-.99-.647.238-1.725-.669-1.078-.906-2.673-1.861-3.708-2.72s-1.078-.62-1.596-1.288c-.517-.669-.776-.573-.733-2.053s.389-4.152.432-5.44c.043-1.29.215-5.251.43-5.776.216-.526.734-1.623.777-2.673s-.173-2.673-.173-3.007v-.716c1.035-.43.949-.43 1.897-.763.949-.334 4.226-.955 4.787-.955.49 0 4.282-.329 5.915-.315" style="display:inline;opacity:1;fill:#fff;fill-opacity:1;stroke:none;stroke-width:.278369px;stroke-linecap:butt;stroke-linejoin:miter;stroke-opacity:1" transform="translate(-232.095 -73.922)scale(1.27355)"/><path d="M261.683 352.593c-.649.006-1.474.207-2.638.207-1.552 0-1.552.135-1.897.269s-.69.536-1.897 1.251c-1.208.716-1.352-.057-2.2 1.7l-.06.126s.288.734.501 1.334.884 1.391.732 1.77c-.153.38-.061.254-.64.76-.58.505-1.098 1.138-1.129 1.486-.03.347.153 2.94.488 3.414.336.474.427.822.64 2.024s.122 1.96.305 3.762-.091 1.423.366 2.308c.458.885.549.917.793 2.94.244 2.024.61 1.613.457 2.277-.152.663-.579.094-.945.695-.366.6.854 3.794 1.037 4.553s.457 1.233.792 3.288c.336 2.055.061 1.264.153 2.434.091 1.17.732 4.521.732 4.774s-.183 1.043-.275 1.36c-.091.315-1.677 2.465-2.256 3.382-.58.917-1.89 1.486-1.92 1.77s.487 1.645.7 1.581c.214-.063 1.037.064 1.525-.316s1.707-1.58 2.043-1.865c.335-.285.67.032.762.221.091.19.061.696-.061 1.044-.122.347.091 1.074.183 1.454.091.38.58.695.823 2.434.244 1.74.244 5.66.488 6.007.244.348.274 1.423.274 1.929 0 .505-.152 1.991-.091 2.434.06.443 1.341.759 1.555.759s.091-.127.305-.696c.213-.569.61-1.39.61-1.707 0-.316-.183-1.012-.244-1.201s-.623-1.094-.536-1.988.172-1.252.388-2.548c.215-1.297-.086-1.834-.13-2.325-.043-.492.345-1.61.259-2.057s-.517-.581-.517-.85c0-.268-.087-2.906-.087-3.89 0-.983.432-3.13.518-3.71.086-.582.431-.537.56-.76.13-.224.043-1.566.216-2.057.172-.492.776-.76 1.25-1.297.475-.536.992-1.475 1.553-2.235s1.294-1.52 2.113-2.147.56-.894 1.336-.939 1.854-.178 3.32-.044 1.208.045 1.682.223c.474.18.82.224 1.639.269s.603.089.819.58c.215.493.69 2.594.776 3.935s-.173 5.768-.087 7.333c.087 1.565.13 1.073.647 2.504.518 1.43.345.76.345 1.923 0 1.162.345 2.235.518 3.666.172 1.43-.087 2.146.043 2.504.13.357.604.134.647.491.043.358-.086.269-.302 1.074s-.302.76-.302 1.206c0 .448.949 1.655 1.38 1.566.431-.09.258-.85.388-2.191.129-1.342.733-3.667.776-4.159.043-.491-.086-1.296-.259-2.056a15 15 0 0 1-.301-2.19c-.043-.627.43-1.79.69-2.907.258-1.118.172-2.683.301-3.398.13-.715-.56-4.113-.518-4.695.044-.58.087-1.476.605-1.744.517-.268.258-1.028.301-1.744.043-.715.216-5.99.087-7.02-.13-1.028-.82-1.519-1.078-1.698s-1.036.045-1.38 0c-.346-.045-.949-.581-1.25-.715s-2.114-.045-2.114-.045h-2.07s5.218-4.874 5.477-5.187-.13-1.296-.13-1.61c0-.312-.043-2.056-.043-2.369s.647-.224.863-.492 0-8.45-.13-9.076c-.129-.626-1.077-2.459-1.466-3.085-.388-.626-1.25-1.565-2.113-2.146-.862-.581-2.5-1.073-3.32-1.073s-1.681.045-2.716.045-2.07.044-2.89 0c-.818-.045-1.12-.045-1.594-.313-.475-.269-1.208-.135-1.94-.135-.734 0-.906-.09-1.639-.313a2 2 0 0 0-.596-.073m9.635 6.751c.3.006.635.033 1.047.096 1.646.253 1.768.506 1.951 1.202.183.695.061 1.96.061 2.909s-.244 1.075 0 1.834c.244.758.244.822.366 1.833s.244 1.708-.305 2.53-.793 1.264-.976 1.707c-.183.442-2.439 2.529-2.622 3.161s-1.22 2.466-1.524 3.035c-.305.57.183.822-.732.949-.915.126-2.5.063-2.5.063s-.793-.19-.976.57c-.183.758-.61 1.96-.122 2.465.488.506 1.403.19.976.822s-1.463 1.897-1.951 3.351c-.488 1.455-.427 2.087-1.037 2.846s-.427 1.138-1.036 1.454c-.61.316-.854.253-.854-.316 0-.57.366-2.15.244-3.288s-.488-6.386-.122-7.145.67-.822.853-2.213-.61-3.351-.304-4.426c.305-1.075.183-.443.975-2.213.793-1.77.732-1.77.732-3.162s.183-2.403.183-3.288.06-1.77-.305-2.213c-.366-.443-.724-1.176-.724-1.176l-.011-.111c-.05-.508 1.226.117 1.772.022.604-.104 1.158.19 1.158-.252 0-.443-.305-.57.488-.696s.61-.19 2.44-.19c1.371 0 1.954-.178 2.855-.16" style="display:inline;fill:#fff;fill-opacity:1;stroke:none;stroke-width:.269425px;stroke-linecap:butt;stroke-linejoin:miter;stroke-opacity:1" transform="translate(-232.095 -73.922)scale(1.27355)"/><path d="M198.183 319.773c.061-2.073.61-1.83.793-2.744s.427-.793 1.158-1.159c.732-.366 2.562-.244 3.171.061.61.305 1.525.305 2.074 1.22.548.914.731 1.341 1.402 2.012.67.67.183.793 1.037.793s1.28.305 2.134.244 1.159 0 2.134-.061c.976-.061 1.342 0 1.464-.244s-.671-.427-.488-1.525-.305-1.22.183-1.89.732-.61 1.585-.976c.854-.366.55-.305 1.28-.731.733-.427 1.037-.671 1.83-.305s.915.305 1.83 1.036c.914.732 1.707.915 1.707 2.074s-.183 1.341.183 1.585 1.83.366 2.988.366 2.256.427 2.378-.244c.122-.67-.67-.549-.305-1.159s.549-.122 1.708-.853c1.158-.732.61-1.159 1.768-1.159 1.159 0 1.951-.366 2.256-.366s.67.061 1.403.61c.731.549 1.097 1.098 1.22 3.049.121 1.951.548 3.049.548 3.72 0 .67-.183 1.524-.427 2.5-.244.975-.854.305-.915 1.524-.06 1.22-.121 4.574-.121 5.55 0 .975-.061.61-.488 2.378s-.793 3.597-.732 4.329-.488 2.622-.366 3.537c.122.914.183 3.537-.183 4.817s0 1.464-.793 1.89c-.792.427-.731.244-.853-.548-.122-.793 0-2.196-.244-3.171-.244-.976-.67-1.464-.549-2.744.122-1.28.488-2.378.305-4.269-.183-1.89-1.098-3.476-1.22-4.207-.122-.732-.488-1.586-.305-2.988.183-1.403-.06-2.622-.122-3.537-.06-.915-.243-1.22-1.22-1.342-.975-.122-1.707-.244-2.865-.67s-.793-.183-1.525.122c-.731.304-1.158.792-1.158 1.402s0 4.878-.122 5.61-.732 3.598-.854 4.635.183 2.5.061 2.987-.183 2.318-.244 3.476c-.06 1.159-.427 2.988-.427 3.72s-.244 2.5-.122 4.451c.122 1.952.061 2.257-.182 2.927-.244.671-.427 8.05-.427 9.208 0 1.159.06 3.842.122 4.269.06.427.548 1.158.548 1.707s.366 2.744.183 3.354-.61 2.744-.914 2.988-.55.793-.55.793-.548.61-.914-.488 0-1.525-.183-3.659.183-4.025-.183-5.305-.914-2.805-.914-3.72c0-.914.305-2.012 0-3.72-.305-1.707-.671-1.463-.671-2.683s.427-4.268.244-4.939c-.183-.67-.976-.183-1.159-1.22s0-3.353-.244-5.427-.853-6.158-.914-7.56c-.061-1.403-.061-5.489-.183-6.891s-1.098-1.83-1.28-2.988c-.184-1.159.121-2.013-.184-2.257s-1.524-.366-2.134-.366-2.378.061-3.049.183-.61.061-.732.732c-.122.67 0 2.988-.122 4.33-.122 1.341-.488 4.634-.427 5.488.061.853 0 4.756 0 5.732 0 .975-.243 3.293-.487 4.451-.244 1.159-.366 2.866-.427 3.537s.305 1.951-.488 1.463c-.793-.487-.366-.06-1.037-2.195s-.975-2.256-1.036-4.512.366-3.903-.061-5.244c-.427-1.342-1.159-1.586-.976-3.232s0-2.135-.122-3.293-1.402-2.195-1.524-3.354-.427-3.72-.366-4.756c.06-1.037.366-1.342-.305-1.952s-1.28-.548-1.342-1.097c-.06-.549-.549-.793-.427-1.525s.366-1.22.366-1.22z" style="display:inline;fill:#fff;fill-opacity:1;stroke:none;stroke-width:.264583px;stroke-linecap:butt;stroke-linejoin:miter;stroke-opacity:1" transform="translate(-232.095 -73.922)scale(1.27355)"/><path d="M302.083 317.382c.735-1.39 1.286-1.786 2.205-2.283s3.033-1.19 4.135-1.19c1.103 0 6.25.049 7.812-.05 1.562-.1 4.181.248 6.11.05 1.93-.2 2.482.099 3.401-.398.919-.496.597-.397.965-1.092.368-.694 2.39-.794 3.124-.694.736.099 2.022.198 2.206.595s.878.478 1.008 1.67c.13 1.194.065 5.545 0 6.668s-.52 3.018-.52 3.51v2.877c0 1.404-.455 2.316-.455 3.088s-.325 2.807-.26 4-.454 4.843-.454 4.843l-.975-2.877c-.715-.562-.78-.14-.91-1.474s.585-2.737.39-3.86.065-1.474-.195-2.948-.91-1.123-.91-2.737.325-2.106-.844-3.159-3.444-1.965-4.679-2.245c-1.235-.281-3.899-.562-5.264-.562-1.364 0-2.599-.07-2.924.21-.325.281 0 1.685-.455 1.615-.454-.07-2.534-.632-3.703-.28-1.17.35-1.495 0-1.56.771-.065.772-.065 2.246.195 3.299s.78 3.158 2.014 4.983c1.235 1.825 11.112 14.037 11.827 14.879s5.198 5.404 6.043 6.246 2.21 3.088 2.664 3.93 1.3 1.615 1.625 3.79c.325 2.176.455 4.633.455 4.633s.195.21.455.21.714.632.65 1.123c-.066.492-1.69 1.474-2.405 1.965s-.78.632-1.494 1.053c-.715.421-.65.702-2.015.772-1.364.07-14.945.14-18.13.07s-6.043.211-6.758-.35c-.714-.562-.714-1.053-.78-1.825-.064-.772.585-2.597.78-3.58.195-.982.26-3.298.325-4.351s-.26-7.23-.13-7.86c.13-.632.78-.913.845-1.755.065-.843-.26-1.264-.455-2.387s-.585-.49-.39-2.175 0-2.737.325-2.878c.325-.14 1.495-.421 1.755 1.053s-.065 2.527.26 3.158c.325.632.455.702.65 2.457.194 1.754.714 4.491.844 5.544s.39 3.299.65 4.07c.26.773.65.983.78 2.177s-.13 2.035.455 2.596c.585.562.91.983 1.82 1.053.909.07 3.768-.28 4.548-.491s3.184-.491 4.613-.491 3.055 0 4.42.07 1.689-.28 1.624-1.334c-.065-1.052-.325-3.018-1.43-4.702s-8.837-11.16-9.617-12.142-3.509-5.544-4.289-6.246-1.69-2.387-4.029-3.72-1.494-2.106-2.209-2.878-1.82-.772-2.86-1.754c-1.039-.983-1.624-1.264-1.624-3.088s.585-5.475.585-6.177c0-.701.16-2.995.16-2.995" style="display:inline;fill:#fff;fill-opacity:1;stroke:none;stroke-width:.29302px;stroke-linecap:butt;stroke-linejoin:miter;stroke-opacity:1" transform="translate(-232.095 -73.922)scale(1.27355)"/><path d="M206.075 295.289c-.068-1.421-.135-2.571-.135-4.195 0-1.623.203-2.368.609-3.18.406-.811.473-1.217 1.894-2.029s2.03-1.082 2.57-1.556c.542-.474 1.016-.541 2.03-.27 1.015.27 1.692.54 4.06 1.826 2.367 1.285 4.6 1.894 5.209 3.18.608 1.285 2.03 2.164 2.164 3.72.136 1.556.61 3.045.88 3.789s1.015.609 1.015 1.759.54 1.759 1.42 2.57c.88.812 5.277 4.33 6.563 5.616s6.968 5.277 7.441 6.088c.474.812 5.006 5.954 5.818 6.495s3.18 2.774 3.992 3.112 2.03.947 2.773 1.556c.745.609 5.954 4.87 6.63 5.683.677.811 3.586 3.45 4.6 3.991 1.015.541 2.571 2.503 2.91 2.841s10.96 9.81 12.989 11.636c2.03 1.827 3.315 2.504 5.885 4.668 2.571 2.165 4.06 3.992 5.345 5.007s3.112 2.03 3.788 3.315c.677 1.285.677 2.164 1.286 2.84.609.677 2.638 2.301 2.638 2.301s6.63 5.886 7.848 7.306c1.217 1.421 3.585 3.383 4.262 4.127s4.938 4.33 6.088 5.277 3.66 2.911 4.903 4.346c1.244 1.435 2.105 2.44 2.918 2.966s1.627 1.1 2.296 1.866c.67.765.766.717 1.77 1.148s1.627.335 2.296.957c.67.621 2.727 3.061 3.11 3.492.383.43.67 1.483 1.1 1.865.43.383 1.053.861 1.483 1.579.43.717 1.77 1.387 2.153 2.057.382.67 1.291 1.53.67 1.435-.622-.096-1.484 0-2.392-.526-.91-.526-1.292-1.387-2.344-2.249-1.053-.86-1.866-1.817-3.97-3.348-2.106-1.53-3.254-1.818-4.258-3.11s-1.1-2.104-1.723-2.487c-.621-.383-.43-.335-1.77-.765-1.339-.431-1.482.143-2.535-1.149-1.052-1.291-3.157-4.018-4.784-5.022s-4.975-4.354-7.127-5.55-3.205-1.865-3.684-2.056c-.478-.192.048-.192-.86-1.388-.91-1.196-2.775-3.396-4.88-5.023s-4.975-4.688-6.028-5.836-1.53-1.052-2.774-2.487-1.914-2.68-2.488-3.349c-.574-.67-.382.287-2.2-.957s-5.453-3.73-6.219-4.879c-.765-1.148-1.148-1.34-4.114-3.827s-8.323-5.836-10.524-7.94c-2.2-2.106-2.87-2.393-4.688-3.54-1.818-1.149-3.54-1.053-4.21-2.297s-2.296-2.87-3.348-3.922-2.01-1.818-4.401-3.158-3.923-1.435-5.167-2.966c-1.243-1.53-4.018-3.73-5.549-5.644-1.53-1.914-6.314-5.071-8.036-6.602-1.722-1.53-1.818-2.2-3.062-2.487s-1.626 0-2.2-.957-4.114-4.305-5.071-4.975-2.392-.766-3.253-.957-1.802.552-4.305-1.68c-2.504-2.233-3.112-3.248-4.33-4.263s-1.218-.812-1.894-1.624c-.677-.811-1.083-2.164-1.083-2.164" style="display:inline;fill:#fff;fill-opacity:1;stroke:none;stroke-width:.293536px;stroke-linecap:butt;stroke-linejoin:miter;stroke-opacity:1" transform="translate(-232.095 -73.922)scale(1.27355)"/><path d="M328.613 295.06c.068-1.42.136-2.57.136-4.195 0-1.623-.203-2.367-.61-3.18-.405-.811-.473-1.217-1.893-2.029-1.421-.812-2.03-1.082-2.571-1.556-.541-.473-1.015-.54-2.03-.27s-1.69.54-4.059 1.826c-2.368 1.286-4.6 1.895-5.209 3.18s-2.03 2.165-2.165 3.72c-.135 1.557-.609 3.045-.88 3.79-.27.743-1.014.608-1.014 1.758s-.541 1.76-1.42 2.57c-.88.813-5.277 4.33-6.563 5.616s-6.968 5.277-7.442 6.089c-.473.811-5.006 5.953-5.818 6.494s-3.18 2.774-3.991 3.112c-.812.338-2.03.947-2.774 1.556s-5.953 4.871-6.63 5.683-3.585 3.45-4.6 3.991c-1.015.542-2.57 2.503-2.909 2.842s-10.96 9.81-12.989 11.636-3.315 2.503-5.886 4.668c-2.57 2.165-4.059 3.991-5.344 5.006s-3.112 2.03-3.789 3.315c-.676 1.285-.676 2.165-1.285 2.841s-2.638 2.3-2.638 2.3-6.63 5.886-7.848 7.307c-1.218 1.42-3.586 3.382-4.262 4.126-.677.745-4.939 4.33-6.089 5.277s-3.659 2.911-4.902 4.346-2.105 2.44-2.918 2.966-1.627 1.1-2.297 1.866c-.67.765-.765.718-1.77 1.148s-1.626.335-2.296.957-2.726 3.061-3.11 3.492c-.382.43-.669 1.483-1.1 1.866-.43.382-1.052.86-1.482 1.578s-1.77 1.387-2.153 2.057-1.292 1.53-.67 1.435 1.483 0 2.392-.526 1.292-1.387 2.344-2.248c1.053-.861 1.866-1.818 3.97-3.349 2.105-1.53 3.253-1.818 4.258-3.11 1.005-1.29 1.1-2.104 1.722-2.487.622-.382.43-.335 1.77-.765s1.483.143 2.535-1.148c1.053-1.292 3.158-4.019 4.784-5.023 1.627-1.005 4.975-4.353 7.128-5.55 2.153-1.195 3.205-1.865 3.683-2.056.479-.192-.047-.192.861-1.387.91-1.196 2.775-3.397 4.88-5.023 2.105-1.627 4.975-4.688 6.027-5.836s1.531-1.053 2.775-2.488 1.913-2.679 2.487-3.349.383.288 2.2-.956c1.819-1.244 5.454-3.732 6.22-4.88.765-1.148 1.148-1.34 4.113-3.827s8.324-5.836 10.525-7.94c2.2-2.105 2.87-2.392 4.688-3.54s3.54-1.053 4.21-2.297c.669-1.243 2.295-2.87 3.348-3.922s2.009-1.818 4.4-3.157c2.393-1.34 3.923-1.436 5.167-2.966s4.019-3.732 5.55-5.645c1.53-1.914 6.314-5.07 8.036-6.602 1.722-1.53 1.818-2.2 3.061-2.487 1.244-.287 1.627 0 2.201-.957s4.114-4.305 5.07-4.975 2.393-.765 3.254-.957c.86-.191 1.802.552 4.305-1.68s3.112-3.248 4.33-4.263 1.218-.811 1.894-1.623c.677-.812 1.082-2.165 1.082-2.165" style="display:inline;fill:#fff;fill-opacity:1;stroke:none;stroke-width:.293536px;stroke-linecap:butt;stroke-linejoin:miter;stroke-opacity:1" transform="translate(-232.095 -73.922)scale(1.27355)"/></g></g><text xml:space="preserve" x="504.044" y="302.476" style="font-style:normal;font-variant:normal;font-weight:400;font-stretch:normal;font-size:37.0511px;line-height:1.05;font-family:sans-serif;-inkscape-font-specification:sans-serif;letter-spacing:-.269589px;word-spacing:-.490354px;fill:#fff;stroke-width:.23904" transform="matrix(.7882 0 0 1.2687 -288.354 112.395)"><tspan x="504.044" y="302.476" dx="0" dy="0" rotate="0 0 0 0 0 0 0 0 0 0 0 0 0 0 0" style="font-style:normal;font-variant:normal;font-weight:400;font-stretch:normal;font-size:37.0511px;line-height:1.05;font-family:EBRASIE;-inkscape-font-specification:EBRASIE;text-align:center;letter-spacing:-.269589px;word-spacing:-.490354px;text-anchor:middle;fill:#fff;stroke-width:.23904">AL ROJO TATTOO</tspan><tspan x="505.82" y="341.38" dx="0 0 0 0 0 0 0" dy="-9.215" rotate="0 0 0 0 0 0 0" style="font-style:normal;font-variant:normal;font-weight:400;font-stretch:normal;font-size:33.9639px;line-height:1.05;font-family:EBRASIE;-inkscape-font-specification:EBRASIE;text-align:center;letter-spacing:3.55135px;word-spacing:-.49082px;text-anchor:middle;fill:#fff;stroke-width:.23904">STUDIO</tspan></text><text xml:space="preserve" x="1279.687" y="944.424" style="font-size:38.1px;line-height:1.25;font-family:&quot;MILKYWAY PERSONAL USE&quot;;-inkscape-font-specification:&quot;MILKYWAY PERSONAL USE, Normal&quot;;letter-spacing:0;word-spacing:0;fill:#fff;stroke-width:.264583" transform="translate(-288.354 112.395)"/></g></svg>